<svg width="130" height="44" viewBox="0 0 130 44" fill="none" xmlns="http://www.w3.org/2000/svg">
<path fill-rule="evenodd" clip-rule="evenodd" d="M7.27273 3.85146L0 0V38.3979C0 41.4918 2.44208 44 5.45454 44H26.5909C29.6034 44 32.0455 41.4918 32.0455 38.3979V0L25.4545 3.85146H7.27273ZM18.0742 21.008L15.9091 24.8594L13.744 21.008H18.0742ZM28.4091 14.7056C28.4091 17.864 25.9161 20.4244 22.8409 20.4244C19.7657 20.4244 17.2727 17.864 17.2727 14.7056C17.2727 11.5471 19.7657 8.98674 22.8409 8.98674C25.9161 8.98674 28.4091 11.5471 28.4091 14.7056ZM8.97727 20.4244C12.0525 20.4244 14.5455 17.864 14.5455 14.7056C14.5455 11.5471 12.0525 8.98674 8.97727 8.98674C5.90205 8.98674 3.40909 11.5471 3.40909 14.7056C3.40909 17.864 5.90205 20.4244 8.97727 20.4244ZM11.3636 15.1724C11.3636 16.526 10.2952 17.6233 8.97727 17.6233C7.65932 17.6233 6.59091 16.526 6.59091 15.1724C6.59091 13.8188 7.65932 12.7215 8.97727 12.7215C10.2952 12.7215 11.3636 13.8188 11.3636 15.1724ZM22.8409 17.6233C24.1589 17.6233 25.2273 16.526 25.2273 15.1724C25.2273 13.8188 24.1589 12.7215 22.8409 12.7215C21.523 12.7215 20.4545 13.8188 20.4545 15.1724C20.4545 16.526 21.523 17.6233 22.8409 17.6233Z" fill="#A390E4"/>
<path d="M39.8117 31.3379C39.5938 31.3379 39.4244 31.1888 39.4244 30.9651V29.0261C39.4244 28.8024 39.5938 28.6284 39.8117 28.6284H41.4335V16.2243H38.4561V18.6853C38.4561 18.909 38.2867 19.1078 38.0688 19.1078H35.8661C35.6482 19.1078 35.4545 18.909 35.4545 18.6853V13.8877C35.4545 13.664 35.6482 13.49 35.8661 13.49H50.1478C50.3657 13.49 50.5351 13.664 50.5351 13.8877V18.6853C50.5351 18.909 50.3657 19.1078 50.1478 19.1078H47.945C47.7272 19.1078 47.5577 18.909 47.5577 18.6853V16.2243H44.653V28.6284H46.2748C46.5168 28.6284 46.6621 28.8024 46.6621 29.0261V30.9651C46.6621 31.1888 46.5168 31.3379 46.2748 31.3379H39.8117Z" fill="#A390E4"/>
<path d="M51.5461 31.3379C51.3524 31.3379 51.2314 31.2385 51.2314 31.0148V29.051C51.2314 28.8273 51.3282 28.703 51.5461 28.703H52.7564V21.7676H51.5461C51.3524 21.7676 51.2314 21.6434 51.2314 21.4196V19.4559C51.2314 19.2321 51.3282 19.1078 51.5461 19.1078H55.2013C55.4191 19.1078 55.5159 19.2321 55.5159 19.4559V22.0659H55.637C55.7338 21.3451 56.6778 19.0084 59.752 19.0084C59.9699 19.0084 60.1394 19.1576 60.1394 19.3813V21.9416C60.1394 22.1654 59.9699 22.3394 59.752 22.3394H59.4132C57.283 22.3394 55.9759 23.8557 55.9759 26.3415V28.703H57.985C58.2028 28.703 58.3239 28.8273 58.3239 29.051V31.0148C58.3239 31.2385 58.1786 31.3379 57.985 31.3379H51.5461Z" fill="#A390E4"/>
<path d="M72.4123 25.546C72.4123 25.7698 72.2671 25.9438 72.0492 25.9438H64.3516C64.5695 27.833 65.804 28.7776 67.4258 28.7776C69.1687 28.7776 70.0159 27.9573 70.4758 27.6092C70.6453 27.485 70.8389 27.4352 70.96 27.5844L72.0008 29.0013C72.1461 29.225 72.1945 29.3742 72.0492 29.5482C71.8072 29.9459 70.1369 31.5119 67.2322 31.5119C63.577 31.5119 61.108 29.0759 61.108 25.2229C61.108 21.3699 63.7465 18.9338 66.8691 18.9338C70.5727 18.9338 72.4123 21.3451 72.4123 25.546ZM64.4 24.0794H69.2655C69.2171 22.6625 68.4425 21.5936 66.9175 21.5936C65.6588 21.5936 64.6905 22.4139 64.4 24.0794Z" fill="#A390E4"/>
<path d="M74.4287 31.3379C74.235 31.3379 74.114 31.2385 74.114 31.0148V29.051C74.114 28.8273 74.2108 28.703 74.4287 28.703H75.639V21.7676H74.4287C74.235 21.7676 74.114 21.6434 74.114 21.4196V19.4559C74.114 19.2321 74.2108 19.1078 74.4287 19.1078H78.0838C78.3017 19.1078 78.3985 19.2321 78.3985 19.4559V21.0219H78.4953C78.6164 20.7982 79.4636 18.9338 82.1747 18.9338C84.789 18.9338 86.3382 20.7485 86.3382 23.3585V28.703H87.5485C87.7664 28.703 87.8874 28.8273 87.8874 29.051V31.0148C87.8874 31.2385 87.7421 31.3379 87.5485 31.3379H84.3048C83.5302 31.3379 83.1187 30.9651 83.1187 30.1945V24.0546C83.1187 22.6377 82.3441 21.8671 81.1096 21.8671C79.7541 21.8671 79.0763 22.8862 78.8584 23.6568V28.703H79.8267C80.0687 28.703 80.1656 28.8273 80.1656 29.051V31.0148C80.1656 31.2385 80.0445 31.3379 79.8267 31.3379H74.4287Z" fill="#A390E4"/>
<path d="M94.5182 18.9338C96.6968 18.9338 97.7619 20.2016 98.0281 20.7236H98.125C98.125 20.5993 98.0281 19.8784 98.0281 19.5553V16.1498H96.842C96.6242 16.1498 96.5031 16.0255 96.5031 15.8017V13.838C96.5031 13.6142 96.6242 13.49 96.842 13.49H100.812C101.03 13.49 101.127 13.6142 101.127 13.838V28.703H102.337C102.555 28.703 102.676 28.8273 102.676 29.051V31.0148C102.676 31.2385 102.531 31.3379 102.337 31.3379H99.1416C98.5607 31.3379 98.1492 30.9651 98.1492 30.3436V29.6973H98.0524C97.8345 30.1945 96.5758 31.5119 94.373 31.5119C91.3472 31.5119 89.1686 29.2499 89.1686 25.198C89.1686 21.5191 91.2746 18.9338 94.5182 18.9338ZM95.1718 28.7279C96.7694 28.7279 98.0039 27.485 98.0039 25.198C98.0039 22.8614 96.6484 21.7428 95.1718 21.7428C93.6226 21.7428 92.4365 23.0105 92.4365 25.198C92.4365 27.311 93.5258 28.7279 95.1718 28.7279Z" fill="#A390E4"/>
<path d="M108.466 29.3742C108.466 30.5922 107.522 31.5119 106.336 31.5119C105.174 31.5119 104.254 30.5922 104.254 29.3742C104.254 28.181 105.174 27.1867 106.336 27.1867C107.522 27.1867 108.466 28.181 108.466 29.3742Z" fill="#A390E4"/>
<path d="M114.01 31.3379C113.477 31.3379 113.356 31.2136 113.162 30.7165L109.895 21.7676H108.854C108.636 21.7676 108.515 21.6434 108.515 21.4196V19.4559C108.515 19.2321 108.636 19.1078 108.854 19.1078H114.373C114.591 19.1078 114.712 19.2321 114.712 19.4559V21.4196C114.712 21.6434 114.566 21.7676 114.373 21.7676H113.356L115.656 28.5538H115.704L118.028 21.7676H117.035C116.818 21.7676 116.697 21.6434 116.697 21.4196V19.4559C116.697 19.2321 116.793 19.1078 117.035 19.1078H122.337C122.554 19.1078 122.676 19.2321 122.676 19.4559V21.4196C122.676 21.6434 122.554 21.7676 122.337 21.7676H121.272L117.955 30.7165C117.762 31.2136 117.641 31.3379 117.108 31.3379H114.01Z" fill="#A390E4"/>
<path d="M128.814 14.708C128.814 15.9757 127.797 16.9949 126.563 16.9949C125.304 16.9949 124.312 15.9757 124.312 14.708C124.312 13.4154 125.304 12.3714 126.563 12.3714C127.797 12.3714 128.814 13.4154 128.814 14.708ZM124.118 31.3379C123.924 31.3379 123.803 31.2385 123.803 31.0148V29.051C123.803 28.8273 123.9 28.703 124.118 28.703H125.328V21.7676H124.118C123.924 21.7676 123.803 21.6434 123.803 21.4196V19.4559C123.803 19.2321 123.9 19.1078 124.118 19.1078H128.209C128.427 19.1078 128.548 19.2321 128.548 19.4559V28.703H129.661C129.903 28.703 130 28.8273 130 29.051V31.0148C130 31.2385 129.879 31.3379 129.661 31.3379H124.118Z" fill="#A390E4"/>
</svg>
