<svg width="100%" height="100%" viewBox="0 0 284 198" fill="none" xmlns="http://www.w3.org/2000/svg">
<path fill-rule="evenodd" clip-rule="evenodd" d="M115.716 11.6011L93.8702 0.5V111.175C93.8702 120.093 101.206 127.322 110.255 127.322H173.745C182.794 127.322 190.13 120.093 190.13 111.175V0.5L170.332 11.6011H115.716ZM148.162 61.0517L141.659 72.1528L135.155 61.0517H148.162ZM179.207 42.8862C179.207 51.9898 171.718 59.3697 162.481 59.3697C153.243 59.3697 145.755 51.9898 145.755 42.8862C145.755 33.7826 153.243 26.4027 162.481 26.4027C171.718 26.4027 179.207 33.7826 179.207 42.8862ZM120.837 59.3697C130.074 59.3697 137.563 51.9898 137.563 42.8862C137.563 33.7826 130.074 26.4027 120.837 26.4027C111.599 26.4027 104.111 33.7826 104.111 42.8862C104.111 51.9898 111.599 59.3697 120.837 59.3697ZM128.005 44.2318C128.005 48.1333 124.796 51.2961 120.837 51.2961C116.878 51.2961 113.668 48.1333 113.668 44.2318C113.668 40.3302 116.878 37.1674 120.837 37.1674C124.796 37.1674 128.005 40.3302 128.005 44.2318ZM162.481 51.2961C166.44 51.2961 169.649 48.1333 169.649 44.2318C169.649 40.3302 166.44 37.1674 162.481 37.1674C158.522 37.1674 155.313 40.3302 155.313 44.2318C155.313 48.1333 158.522 51.2961 162.481 51.2961Z" fill="#A390E4"/>
<path d="M13.0882 196.998C12.4338 196.998 11.9248 196.569 11.9248 195.924V190.335C11.9248 189.69 12.4338 189.189 13.0882 189.189H17.9599V153.436H9.0163V160.529C9.0163 161.174 8.50732 161.747 7.85291 161.747H1.2361C0.581693 161.747 0 161.174 0 160.529V146.701C0 146.056 0.581693 145.555 1.2361 145.555H44.1363C44.7907 145.555 45.2997 146.056 45.2997 146.701V160.529C45.2997 161.174 44.7907 161.747 44.1363 161.747H37.5195C36.8651 161.747 36.3561 161.174 36.3561 160.529V153.436H27.6306V189.189H32.5023C33.2294 189.189 33.6657 189.69 33.6657 190.335V195.924C33.6657 196.569 33.2294 196.998 32.5023 196.998H13.0882Z" fill="#A390E4"/>
<path d="M48.3365 196.998C47.7548 196.998 47.3913 196.712 47.3913 196.067V190.407C47.3913 189.762 47.6821 189.404 48.3365 189.404H51.9721V169.414H48.3365C47.7548 169.414 47.3913 169.056 47.3913 168.411V162.75C47.3913 162.106 47.6821 161.747 48.3365 161.747H59.3161C59.9705 161.747 60.2613 162.106 60.2613 162.75V170.274H60.6249C60.9157 168.196 63.7515 161.461 72.9859 161.461C73.6404 161.461 74.1494 161.891 74.1494 162.536V169.915C74.1494 170.56 73.6404 171.062 72.9859 171.062H71.968C65.5693 171.062 61.6429 175.432 61.6429 182.597V189.404H67.678C68.3324 189.404 68.6959 189.762 68.6959 190.407V196.067C68.6959 196.712 68.2597 196.998 67.678 196.998H48.3365Z" fill="#A390E4"/>
<path d="M111.016 180.304C111.016 180.949 110.579 181.451 109.925 181.451H86.8024C87.4568 186.896 91.1651 189.619 96.0368 189.619C101.272 189.619 103.817 187.254 105.199 186.251C105.708 185.893 106.289 185.75 106.653 186.18L109.779 190.264C110.216 190.908 110.361 191.338 109.925 191.84C109.198 192.986 104.181 197.5 95.4551 197.5C84.4756 197.5 77.059 190.478 77.059 179.373C77.059 168.267 84.9846 161.246 94.3645 161.246C105.489 161.246 111.016 168.196 111.016 180.304ZM86.9478 176.077H101.563C101.418 171.993 99.0907 168.912 94.5099 168.912C90.7288 168.912 87.8204 171.277 86.9478 176.077Z" fill="#A390E4"/>
<path d="M117.072 196.998C116.491 196.998 116.127 196.712 116.127 196.067V190.407C116.127 189.762 116.418 189.404 117.072 189.404H120.708V169.414H117.072C116.491 169.414 116.127 169.056 116.127 168.411V162.75C116.127 162.106 116.418 161.747 117.072 161.747H128.052C128.706 161.747 128.997 162.106 128.997 162.75V167.264H129.288C129.651 166.62 132.196 161.246 140.34 161.246C148.193 161.246 152.847 166.476 152.847 173.999V189.404H156.482C157.137 189.404 157.5 189.762 157.5 190.407V196.067C157.5 196.712 157.064 196.998 156.482 196.998H146.739C144.412 196.998 143.176 195.924 143.176 193.703V176.005C143.176 171.922 140.849 169.7 137.141 169.7C133.069 169.7 131.033 172.638 130.379 174.859V189.404H133.287C134.014 189.404 134.305 189.762 134.305 190.407V196.067C134.305 196.712 133.941 196.998 133.287 196.998H117.072Z" fill="#A390E4"/>
<path d="M177.418 161.246C183.962 161.246 187.162 164.9 187.961 166.405H188.252C188.252 166.046 187.961 163.969 187.961 163.037V153.221H184.399C183.744 153.221 183.381 152.863 183.381 152.218V146.558C183.381 145.913 183.744 145.555 184.399 145.555H196.323C196.978 145.555 197.269 145.913 197.269 146.558V189.404H200.904C201.559 189.404 201.922 189.762 201.922 190.407V196.067C201.922 196.712 201.486 196.998 200.904 196.998H191.306C189.561 196.998 188.325 195.924 188.325 194.133V192.27H188.034C187.38 193.703 183.599 197.5 176.982 197.5C167.893 197.5 161.349 190.98 161.349 179.301C161.349 168.697 167.675 161.246 177.418 161.246ZM179.381 189.475C184.18 189.475 187.889 185.893 187.889 179.301C187.889 172.566 183.817 169.342 179.381 169.342C174.728 169.342 171.165 172.996 171.165 179.301C171.165 185.391 174.437 189.475 179.381 189.475Z" fill="#A390E4"/>
<path d="M219.316 191.338C219.316 194.849 216.48 197.5 212.917 197.5C209.427 197.5 206.664 194.849 206.664 191.338C206.664 187.899 209.427 185.033 212.917 185.033C216.48 185.033 219.316 187.899 219.316 191.338Z" fill="#A390E4"/>
<path d="M235.967 196.998C234.368 196.998 234.004 196.64 233.422 195.207L223.606 169.414H220.48C219.825 169.414 219.462 169.056 219.462 168.411V162.75C219.462 162.106 219.825 161.747 220.48 161.747H237.058C237.712 161.747 238.076 162.106 238.076 162.75V168.411C238.076 169.056 237.64 169.414 237.058 169.414H234.004L240.912 188.974H241.057L248.038 169.414H245.056C244.402 169.414 244.038 169.056 244.038 168.411V162.75C244.038 162.106 244.329 161.747 245.056 161.747H260.98C261.635 161.747 261.998 162.106 261.998 162.75V168.411C261.998 169.056 261.635 169.414 260.98 169.414H257.781L247.819 195.207C247.238 196.64 246.874 196.998 245.275 196.998H235.967Z" fill="#A390E4"/>
<path d="M280.437 149.066C280.437 152.72 277.383 155.657 273.675 155.657C269.894 155.657 266.913 152.72 266.913 149.066C266.913 145.34 269.894 142.331 273.675 142.331C277.383 142.331 280.437 145.34 280.437 149.066ZM266.331 196.998C265.749 196.998 265.386 196.712 265.386 196.067V190.407C265.386 189.762 265.677 189.404 266.331 189.404H269.967V169.414H266.331C265.749 169.414 265.386 169.056 265.386 168.411V162.75C265.386 162.106 265.677 161.747 266.331 161.747H278.619C279.274 161.747 279.637 162.106 279.637 162.75V189.404H282.982C283.709 189.404 284 189.762 284 190.407V196.067C284 196.712 283.636 196.998 282.982 196.998H266.331Z" fill="#A390E4"/>
</svg>
