<svg width="250" height="250" viewBox="0 0 250 250" fill="none" xmlns="http://www.w3.org/2000/svg">
<rect x="0.25" y="0.25" width="249.5" height="249.5" rx="4.75" fill="#E5EFFA" stroke="#8E44AD" stroke-width="0.5"/>
<circle cx="125" cy="125" r="41" fill="#CEDEEE"/>
<g clip-path="url(#clip0_12659_1998)">
<path d="M143 127H107C105.896 127 105 126.104 105 125C105 123.896 105.896 123 107 123H143C144.104 123 145 123.896 145 125C145 126.104 144.104 127 143 127Z" fill="#E5EFFA"/>
<path d="M125 145C123.896 145 123 144.104 123 143V107C123 105.896 123.896 105 125 105C126.104 105 127 105.896 127 107V143C127 144.104 126.104 145 125 145Z" fill="#E5EFFA"/>
</g>
<defs>
<clipPath id="clip0_12659_1998">
<rect width="40" height="40" fill="white" transform="translate(105 105)"/>
</clipPath>
</defs>
</svg>
