<svg viewBox="0 0 118 156" fill="none" xmlns="http://www.w3.org/2000/svg">
<path fill-rule="evenodd" clip-rule="evenodd" d="M26.7932 14.0806L0.0239258 0.5V135.894C0.0239258 146.804 9.01267 155.648 20.1008 155.648H97.8989C108.987 155.648 117.976 146.804 117.976 135.894V0.5L93.7162 14.0806H26.7932ZM66.5507 74.5759L58.5816 88.1565L50.6125 74.5759H66.5507ZM104.591 52.3531C104.591 63.49 95.4152 72.5182 84.0961 72.5182C72.7769 72.5182 63.6008 63.49 63.6008 52.3531C63.6008 41.2163 72.7769 32.188 84.0961 32.188C95.4152 32.188 104.591 41.2163 104.591 52.3531ZM33.0672 72.5182C44.3864 72.5182 53.5624 63.49 53.5624 52.3531C53.5624 41.2163 44.3864 32.188 33.0672 32.188C21.748 32.188 12.572 41.2163 12.572 52.3531C12.572 63.49 21.748 72.5182 33.0672 72.5182ZM41.8508 53.9993C41.8508 58.7722 37.9183 62.6415 33.0672 62.6415C28.2161 62.6415 24.2835 58.7722 24.2835 53.9993C24.2835 49.2263 28.2161 45.3571 33.0672 45.3571C37.9183 45.3571 41.8508 49.2263 41.8508 53.9993ZM84.0961 62.6415C88.9471 62.6415 92.8797 58.7722 92.8797 53.9993C92.8797 49.2263 88.9471 45.3571 84.0961 45.3571C79.245 45.3571 75.3124 49.2263 75.3124 53.9993C75.3124 58.7722 79.245 62.6415 84.0961 62.6415Z" fill="#A390E4"/>
</svg>
